<svg class="bt-svg" viewBox="0 0 660 310" role="img" aria-labelledby="l06-cross-validation-t">
<title id="l06-cross-validation-t">Leave-one-out cross-validation hides each sample, estimates it from the rest and plots actual against estimate</title>
<rect class="s-grid none" x="20" y="30" width="280" height="230" stroke-width="1.5"/>
<path class="s-muted none a-draw" style="--d:.6s" pathLength="1" stroke-width="1.3" d="M89.1 228 L143.1 244.6"/>
<path class="s-muted none a-draw" style="--d:.6s" pathLength="1" stroke-width="1.3" d="M206.6 222.7 L143.1 244.6"/>
<path class="s-muted none a-draw" style="--d:.6s" pathLength="1" stroke-width="1.3" d="M42.7 249.8 L143.1 244.6"/>
<path class="s-muted none a-draw" style="--d:.6s" pathLength="1" stroke-width="1.3" d="M132 143.5 L143.1 244.6"/>
<circle class="f-ember" cx="239.3" cy="209.7" r="5"/>
<circle class="f-ember" cx="164" cy="100" r="5"/>
<circle class="f-ember" cx="44" cy="120.5" r="5"/>
<circle class="f-ember" cx="136.2" cy="49.5" r="5"/>
<circle class="f-ember" cx="42.7" cy="249.8" r="5"/>
<circle class="f-ember" cx="199.6" cy="89.2" r="5"/>
<circle class="s-flame none a-pulse" cx="143.1" cy="244.6" r="10" stroke-width="2"/>
<circle class="s-ember none" cx="143.1" cy="244.6" r="5" stroke-width="2"/>
<circle class="f-ember" cx="263.4" cy="217.3" r="5"/>
<circle class="f-ember" cx="132" cy="143.5" r="5"/>
<circle class="f-ember" cx="205.9" cy="52.8" r="5"/>
<circle class="f-ember" cx="174.5" cy="97" r="5"/>
<circle class="f-ember" cx="258.7" cy="53.5" r="5"/>
<circle class="f-ember" cx="206.6" cy="222.7" r="5"/>
<circle class="f-ember" cx="89.1" cy="228" r="5"/>
<text class="small" x="157.1" y="234.6">hidden, then estimated</text>
<text class="small" x="20" y="302">map: one sample left out, kriged from its neighbors</text>
<line class="s-grid" x1="380" y1="260" x2="620" y2="260" stroke-width="1.5"/>
<line class="s-grid" x1="380" y1="260" x2="380" y2="30" stroke-width="1.5"/>
<line class="s-muted dash" x1="380" y1="260" x2="620" y2="30" stroke-width="1"/>
<text class="small" x="590" y="44">1:1</text>
<text x="500.0" y="282" text-anchor="middle">estimate</text>
<text x="368" y="145.0" transform="rotate(-90 368 145.0)" text-anchor="middle">actual</text>
<circle class="f-night a-pop" style="--d:1.00s" cx="479.3" cy="199.7" r="4.5"/>
<circle class="f-night a-pop" style="--d:1.15s" cx="477.8" cy="182.3" r="4.5"/>
<circle class="f-night a-pop" style="--d:1.30s" cx="601.7" cy="82.9" r="4.5"/>
<circle class="f-night a-pop" style="--d:1.45s" cx="513.6" cy="143.5" r="4.5"/>
<circle class="f-night a-pop" style="--d:1.60s" cx="517.4" cy="143.7" r="4.5"/>
<circle class="f-night a-pop" style="--d:1.75s" cx="467.7" cy="199.6" r="4.5"/>
<circle class="f-night a-pop" style="--d:1.90s" cx="399.2" cy="245.5" r="4.5"/>
<circle class="f-night a-pop" style="--d:2.05s" cx="578.2" cy="55.3" r="4.5"/>
<circle class="f-night a-pop" style="--d:2.20s" cx="449.9" cy="230.7" r="4.5"/>
<circle class="f-night a-pop" style="--d:2.35s" cx="555.7" cy="73.6" r="4.5"/>
<circle class="f-night a-pop" style="--d:2.50s" cx="479.4" cy="172.3" r="4.5"/>
<circle class="f-night a-pop" style="--d:2.65s" cx="582.4" cy="51.6" r="4.5"/>
<circle class="f-night a-pop" style="--d:2.80s" cx="493.2" cy="165.8" r="4.5"/>
<circle class="f-night a-pop" style="--d:2.95s" cx="573.1" cy="54.7" r="4.5"/>
<text class="small" x="380" y="302">repeat for every sample, then compare</text>
</svg>
